<mxfile host="app.diagrams.net" modified="2022-11-11T08:13:21.268Z" agent="5.0 (Macintosh; Intel Mac OS X 10_14_6) AppleWebKit/537.36 (KHTML, like Gecko) Chrome/106.0.0.0 Safari/537.36" etag="WzhHrug1t68gFlzpKYjk" version="20.4.1" type="github">
  <diagram id="_hhmsLAF-CzPJiAdxgkg" name="第 1 页">
    <mxGraphModel dx="946" dy="534" grid="1" gridSize="10" guides="1" tooltips="1" connect="1" arrows="1" fold="1" page="1" pageScale="1" pageWidth="827" pageHeight="1169" math="0" shadow="0">
      <root>
        <mxCell id="0" />
        <mxCell id="1" parent="0" />
        <mxCell id="ZkeVtflN3YiVF2ViqKyu-1" value="&lt;font style=&quot;font-size: 15px;&quot;&gt;&lt;b&gt;File Header（32 byte）&lt;/b&gt;&lt;/font&gt;" style="rounded=0;whiteSpace=wrap;html=1;fillColor=#e1d5e7;strokeColor=#9673a6;" vertex="1" parent="1">
          <mxGeometry x="190" y="70" width="360" height="60" as="geometry" />
        </mxCell>
        <mxCell id="ZkeVtflN3YiVF2ViqKyu-2" value="Page Header（56 byte）" style="rounded=0;whiteSpace=wrap;html=1;fontSize=15;fontStyle=1" vertex="1" parent="1">
          <mxGeometry x="190" y="130" width="360" height="60" as="geometry" />
        </mxCell>
        <mxCell id="ZkeVtflN3YiVF2ViqKyu-3" value="Infinum+Supernum（26 byte）" style="rounded=0;whiteSpace=wrap;html=1;fillColor=#d5e8d4;strokeColor=#82b366;fontSize=15;fontStyle=1" vertex="1" parent="1">
          <mxGeometry x="190" y="190" width="360" height="60" as="geometry" />
        </mxCell>
        <mxCell id="ZkeVtflN3YiVF2ViqKyu-4" value="&lt;span style=&quot;font-size: 15px;&quot;&gt;&lt;font style=&quot;font-size: 15px;&quot;&gt;User Records&lt;/font&gt;&lt;/span&gt;" style="rounded=0;whiteSpace=wrap;html=1;fillColor=#f8cecc;strokeColor=#b85450;fontSize=15;fontStyle=1" vertex="1" parent="1">
          <mxGeometry x="190" y="250" width="360" height="120" as="geometry" />
        </mxCell>
        <mxCell id="ZkeVtflN3YiVF2ViqKyu-5" value="Free Space" style="rounded=0;whiteSpace=wrap;html=1;fillColor=#dae8fc;strokeColor=#6c8ebf;fontSize=15;fontStyle=1" vertex="1" parent="1">
          <mxGeometry x="190" y="370" width="360" height="90" as="geometry" />
        </mxCell>
        <mxCell id="ZkeVtflN3YiVF2ViqKyu-6" value="Page Directory&amp;nbsp;" style="rounded=0;whiteSpace=wrap;html=1;fillColor=#fff2cc;strokeColor=#d6b656;fontSize=15;fontStyle=1" vertex="1" parent="1">
          <mxGeometry x="190" y="460" width="360" height="60" as="geometry" />
        </mxCell>
        <mxCell id="ZkeVtflN3YiVF2ViqKyu-8" value="File Tailer (8 byte)" style="rounded=0;whiteSpace=wrap;html=1;fontSize=15;fontStyle=1" vertex="1" parent="1">
          <mxGeometry x="190" y="520" width="360" height="60" as="geometry" />
        </mxCell>
        <mxCell id="ZkeVtflN3YiVF2ViqKyu-9" value="" style="shape=curlyBracket;whiteSpace=wrap;html=1;rounded=1;size=0.5;strokeWidth=2;fontSize=15;fontStyle=1" vertex="1" parent="1">
          <mxGeometry x="150" y="90" width="20" height="480" as="geometry" />
        </mxCell>
        <mxCell id="ZkeVtflN3YiVF2ViqKyu-10" value="" style="shape=curlyBracket;whiteSpace=wrap;html=1;rounded=1;flipH=1;strokeWidth=2;fontSize=15;fontStyle=1" vertex="1" parent="1">
          <mxGeometry x="560" y="190" width="20" height="180" as="geometry" />
        </mxCell>
        <mxCell id="ZkeVtflN3YiVF2ViqKyu-11" value="数据页 16 KB" style="text;html=1;align=center;verticalAlign=middle;resizable=0;points=[];autosize=1;strokeColor=none;fillColor=none;fontSize=17;fontStyle=1" vertex="1" parent="1">
          <mxGeometry x="25" y="315" width="130" height="30" as="geometry" />
        </mxCell>
        <mxCell id="ZkeVtflN3YiVF2ViqKyu-12" value="行记录" style="text;html=1;align=center;verticalAlign=middle;resizable=0;points=[];autosize=1;strokeColor=none;fillColor=none;fontSize=17;fontStyle=1" vertex="1" parent="1">
          <mxGeometry x="590" y="265" width="70" height="30" as="geometry" />
        </mxCell>
      </root>
    </mxGraphModel>
  </diagram>
</mxfile>
